<svg xmlns="http://www.w3.org/2000/svg" xmlns:xlink="http://www.w3.org/1999/xlink" version="1.1" width="150" height="150" viewBox="0 0 150 150" xml:space="preserve">
<desc>Created with Fabric.js 3.6.6</desc>
<defs>
</defs>
<g transform="matrix(1 0 0 1 67.68 69.48)"  >
<linearGradient id="SVGID_215" gradientUnits="userSpaceOnUse" gradientTransform="matrix(1 0 0 1 -65 -65)"  x1="65" y1="130" x2="65" y2="0">
<stop offset="100%" style="stop-color:rgba(255, 251, 0, 1);"/>
<stop offset="100%" style="stop-color:rgba(0, 0, 255, 1);"/>
</linearGradient>
<circle style="stroke: none; stroke-width: 1; stroke-dasharray: none; stroke-linecap: butt; stroke-dashoffset: 0; stroke-linejoin: miter; stroke-miterlimit: 4; fill: url(#SVGID_215); fill-rule: nonzero; opacity: 1;"  cx="0" cy="0" r="65" />
</g>
<g transform="matrix(1 0 0 1 93.35 89.98)"  >
<line style="stroke: rgb(0,0,0); stroke-width: 2; stroke-dasharray: none; stroke-linecap: butt; stroke-dashoffset: 0; stroke-linejoin: miter; stroke-miterlimit: 4; fill: rgb(0,0,0); fill-rule: nonzero; opacity: 1;"  x1="24.5" y1="18" x2="-24.5" y2="-18" />
</g>
<g transform="matrix(1 0 0 1 92.85 56.98)"  >
<line style="stroke: rgb(0,0,0); stroke-width: 2; stroke-dasharray: none; stroke-linecap: butt; stroke-dashoffset: 0; stroke-linejoin: miter; stroke-miterlimit: 4; fill: rgb(0,0,0); fill-rule: nonzero; opacity: 1;"  x1="0" y1="0" x2="0" y2="0" />
</g>
<g transform="matrix(1 0 0 1 97.35 54.98)"  >
<line style="stroke: rgb(0,0,0); stroke-width: 2; stroke-dasharray: none; stroke-linecap: butt; stroke-dashoffset: 0; stroke-linejoin: miter; stroke-miterlimit: 4; fill: rgb(0,0,0); fill-rule: nonzero; opacity: 1;"  x1="-27.5" y1="17" x2="27.5" y2="-17" />
</g>
<g transform="matrix(1 0 0 1 398.46 121.13)"  >
<line style="stroke: rgb(0,0,0); stroke-width: 2; stroke-dasharray: none; stroke-linecap: butt; stroke-dashoffset: 0; stroke-linejoin: miter; stroke-miterlimit: 4; fill: rgb(0,0,0); fill-rule: nonzero; opacity: 1;"  x1="0" y1="0" x2="0" y2="0" />
</g>
<g transform="matrix(1 0 0 1 106.85 70.98)"  >
<path style="stroke: rgb(0,0,0); stroke-width: 20; stroke-dasharray: none; stroke-linecap: round; stroke-dashoffset: 0; stroke-linejoin: round; stroke-miterlimit: 10; fill: none; fill-rule: nonzero; opacity: 1;"  transform=" translate(-325.67, -120)" d="M 325.64665649414064 120 L 325.6866564941406 120" stroke-linecap="round" />
</g>
<g transform="matrix(1 0 0 1 96.85 73.98)"  >
<path style="stroke: rgb(0,0,0); stroke-width: 20; stroke-dasharray: none; stroke-linecap: round; stroke-dashoffset: 0; stroke-linejoin: round; stroke-miterlimit: 10; fill: none; fill-rule: nonzero; opacity: 1;"  transform=" translate(-315.67, -123)" d="M 315.64665649414064 123 L 315.6866564941406 123" stroke-linecap="round" />
</g>
<g transform="matrix(1 0 0 1 86.85 74.98)"  >
<path style="stroke: rgb(0,0,0); stroke-width: 20; stroke-dasharray: none; stroke-linecap: round; stroke-dashoffset: 0; stroke-linejoin: round; stroke-miterlimit: 10; fill: none; fill-rule: nonzero; opacity: 1;"  transform=" translate(-305.67, -124)" d="M 305.64665649414064 124 L 305.6866564941406 124" stroke-linecap="round" />
</g>
<g transform="matrix(1 0 0 1 110.84 59.48)"  >
<path style="stroke: rgb(0,0,0); stroke-width: 20; stroke-dasharray: none; stroke-linecap: round; stroke-dashoffset: 0; stroke-linejoin: round; stroke-miterlimit: 10; fill: none; fill-rule: nonzero; opacity: 1;"  transform=" translate(-329.67, -108.5)" d="M 320.64665649414064 115 Q 320.6666564941406 115 321.1666564941406 115 Q 321.6666564941406 115 322.1666564941406 115 Q 322.6666564941406 115 323.1666564941406 115 Q 323.6666564941406 115 323.6666564941406 114.5 Q 323.6666564941406 114 324.1666564941406 113.5 Q 324.6666564941406 113 325.1666564941406 113 Q 325.6666564941406 113 326.1666564941406 112.5 Q 326.6666564941406 112 327.1666564941406 112 Q 327.6666564941406 112 328.6666564941406 110.5 Q 329.6666564941406 109 330.1666564941406 108.5 Q 330.6666564941406 108 331.1666564941406 108 Q 331.6666564941406 108 331.6666564941406 107.5 Q 331.6666564941406 107 331.6666564941406 106.5 Q 331.6666564941406 106 332.6666564941406 105.5 Q 333.6666564941406 105 333.6666564941406 104.5 Q 333.6666564941406 104 334.1666564941406 104 Q 334.6666564941406 104 335.1666564941406 104 Q 335.6666564941406 104 335.6666564941406 103.5 Q 335.6666564941406 103 336.1666564941406 103 Q 336.6666564941406 103 336.6666564941406 102.5 Q 336.6666564941406 102 337.1666564941406 102 Q 337.6666564941406 102 338.1666564941406 102 L 338.6866564941406 102" stroke-linecap="round" />
</g>
<g transform="matrix(1 0 0 1 104.84 74.97)"  >
<path style="stroke: rgb(0,0,0); stroke-width: 20; stroke-dasharray: none; stroke-linecap: round; stroke-dashoffset: 0; stroke-linejoin: round; stroke-miterlimit: 10; fill: none; fill-rule: nonzero; opacity: 1;"  transform=" translate(-323.67, -123.99)" d="M 338.64665649414064 115 Q 338.6666564941406 115 338.6666564941406 115.5 Q 338.6666564941406 116 339.1666564941406 116 Q 339.6666564941406 116 339.6666564941406 116.5 Q 339.6666564941406 117 339.6666564941406 117.5 Q 339.6666564941406 118 339.6666564941406 119 Q 339.6666564941406 120 339.6666564941406 120.5 Q 339.6666564941406 121 339.6666564941406 121.5 Q 339.6666564941406 122 339.6666564941406 122.5 Q 339.6666564941406 123 339.6666564941406 123.5 Q 339.6666564941406 124 339.6666564941406 124.5 Q 339.6666564941406 125 339.6666564941406 125.5 Q 339.6666564941406 126 339.6666564941406 126.5 Q 339.6666564941406 127 339.6666564941406 127.5 Q 339.6666564941406 128 339.6666564941406 128.5 Q 339.6666564941406 129 339.6666564941406 129.5 Q 339.6666564941406 130 339.1666564941406 130 Q 338.6666564941406 130 338.6666564941406 130.5 Q 338.6666564941406 131 338.1666564941406 131 Q 337.6666564941406 131 337.6666564941406 131.5 Q 337.6666564941406 132 337.6666564941406 132.5 Q 337.6666564941406 133 337.6666564941406 133.5 Q 337.6666564941406 134 337.1666564941406 134 Q 336.6666564941406 134 336.6666564941406 134.5 Q 336.6666564941406 135 336.1666564941406 135 Q 335.6666564941406 135 335.6666564941406 135.5 Q 335.6666564941406 136 335.6666564941406 136.5 Q 335.6666564941406 137 335.1666564941406 137 Q 334.6666564941406 137 334.6666564941406 137.5 Q 334.6666564941406 138 334.6666564941406 138.5 Q 334.6666564941406 139 334.1666564941406 139.5 Q 333.6666564941406 140 333.6666564941406 140.5 Q 333.6666564941406 141 333.1666564941406 141 Q 332.6666564941406 141 332.1666564941406 141 Q 331.6666564941406 141 331.6666564941406 140.5 Q 331.6666564941406 140 331.1666564941406 140 Q 330.6666564941406 140 330.1666564941406 140 Q 329.6666564941406 140 329.6666564941406 139.5 Q 329.6666564941406 139 329.1666564941406 138.5 Q 328.6666564941406 138 328.1666564941406 138 Q 327.6666564941406 138 327.1666564941406 138 Q 326.6666564941406 138 326.6666564941406 137.5 Q 326.6666564941406 137 326.1666564941406 137 Q 325.6666564941406 137 325.6666564941406 136.5 Q 325.6666564941406 136 325.1666564941406 136 Q 324.6666564941406 136 324.1666564941406 136 Q 323.6666564941406 136 322.6666564941406 136 Q 321.6666564941406 136 321.6666564941406 135.5 Q 321.6666564941406 135 321.1666564941406 135 Q 320.6666564941406 135 320.6666564941406 134.5 Q 320.6666564941406 134 320.1666564941406 134 Q 319.6666564941406 134 319.6666564941406 133.5 Q 319.6666564941406 133 319.1666564941406 133 Q 318.6666564941406 133 318.6666564941406 132.5 Q 318.6666564941406 132 318.1666564941406 132 Q 317.6666564941406 132 317.1666564941406 131.5 Q 316.6666564941406 131 316.6666564941406 130.5 Q 316.6666564941406 130 316.1666564941406 130 Q 315.6666564941406 130 315.6666564941406 129.5 Q 315.6666564941406 129 315.1666564941406 128.5 Q 314.6666564941406 128 314.1666564941406 128 Q 313.6666564941406 128 313.6666564941406 127.5 Q 313.6666564941406 127 313.6666564941406 126.5 Q 313.6666564941406 126 313.1666564941406 125.5 Q 312.6666564941406 125 312.1666564941406 124.5 Q 311.6666564941406 124 311.1666564941406 123.5 Q 310.6666564941406 123 310.1666564941406 122.5 Q 309.6666564941406 122 309.1666564941406 122 Q 308.6666564941406 122 308.6666564941406 121 Q 308.6666564941406 120 308.1666564941406 119.5 Q 307.6666564941406 119 307.6666564941406 118.5 Q 307.6666564941406 118 308.1666564941406 118 Q 308.6666564941406 118 309.1666564941406 118 Q 309.6666564941406 118 310.1666564941406 118 Q 310.6666564941406 118 311.1666564941406 118 Q 311.6666564941406 118 312.1666564941406 118 Q 312.6666564941406 118 313.1666564941406 118 Q 313.6666564941406 118 313.6666564941406 117.5 Q 313.6666564941406 117 314.1666564941406 117 Q 314.6666564941406 117 315.1666564941406 117 Q 315.6666564941406 117 315.6666564941406 116.5 Q 315.6666564941406 116 316.1666564941406 116 Q 316.6666564941406 116 317.1666564941406 116 Q 317.6666564941406 116 317.6666564941406 115.5 Q 317.6666564941406 115 317.6666564941406 114.5 Q 317.6666564941406 114 318.1666564941406 114 Q 318.6666564941406 114 319.1666564941406 114 Q 319.6666564941406 114 319.6666564941406 113.5 Q 319.6666564941406 113 320.1666564941406 113 Q 320.6666564941406 113 321.1666564941406 113 Q 321.6666564941406 113 321.6666564941406 112.5 Q 321.6666564941406 112 322.1666564941406 112 Q 322.6666564941406 112 323.1666564941406 112 Q 323.6666564941406 112 323.6666564941406 111.5 Q 323.6666564941406 111 323.6666564941406 110.5 Q 323.6666564941406 110 323.1666564941406 110.5 Q 322.6666564941406 111 323.1666564941406 111 Q 323.6666564941406 111 324.1666564941406 111 Q 324.6666564941406 111 325.1666564941406 111 Q 325.6666564941406 111 326.1666564941406 111 Q 326.6666564941406 111 327.1666564941406 111 Q 327.6666564941406 111 327.6666564941406 110.5 Q 327.6666564941406 110 328.1666564941406 110 Q 328.6666564941406 110 329.1666564941406 110 Q 329.6666564941406 110 330.1666564941406 110 Q 330.6666564941406 110 331.1666564941406 110 Q 331.6666564941406 110 332.1666564941406 110 Q 332.6666564941406 110 333.1666564941406 110 Q 333.6666564941406 110 334.1666564941406 110 Q 334.6666564941406 110 335.1666564941406 110 Q 335.6666564941406 110 336.6666564941406 110 Q 337.6666564941406 110 338.1666564941406 110 Q 338.6666564941406 110 338.6666564941406 109.5 Q 338.6666564941406 109 339.1666564941406 109 Q 339.6666564941406 109 339.6666564941406 108.5 Q 339.6666564941406 108 339.6666564941406 107.5 L 339.6666564941406 106.98" stroke-linecap="round" />
</g>
<g transform="matrix(1 0 0 1 100.41 72.48)"  >
<path style="stroke: rgb(0,0,0); stroke-width: 10; stroke-dasharray: none; stroke-linecap: round; stroke-dashoffset: 0; stroke-linejoin: round; stroke-miterlimit: 10; fill: none; fill-rule: nonzero; opacity: 1;"  transform=" translate(-319.23, -121.5)" d="M 303.6766564941406 120 Q 303.6666564941406 120 303.1666564941406 120 Q 302.6666564941406 120 302.1666564941406 120 Q 301.6666564941406 120 301.6666564941406 119.5 Q 301.6666564941406 119 301.1666564941406 119 Q 300.6666564941406 119 300.1666564941406 119 Q 299.6666564941406 119 299.1666564941406 119 Q 298.6666564941406 119 298.1666564941406 119 Q 297.6666564941406 119 297.1666564941406 119 Q 296.6666564941406 119 296.1666564941406 119 Q 295.6666564941406 119 295.1666564941406 119 Q 294.6666564941406 119 295.1666564941406 119 Q 295.6666564941406 119 295.6666564941406 119.5 Q 295.6666564941406 120 295.6666564941406 120.5 Q 295.6666564941406 121 296.1666564941406 121 Q 296.6666564941406 121 297.1666564941406 121 Q 297.6666564941406 121 298.1666564941406 121 Q 298.6666564941406 121 299.6666564941406 121 Q 300.6666564941406 121 301.1666564941406 121 Q 301.6666564941406 121 302.6666564941406 121 Q 303.6666564941406 121 304.1666564941406 121 Q 304.6666564941406 121 305.1666564941406 121.5 Q 305.6666564941406 122 309.1666564941406 123 Q 312.6666564941406 124 313.1666564941406 124 Q 313.6666564941406 124 314.6666564941406 124 Q 315.6666564941406 124 316.6666564941406 125 Q 317.6666564941406 126 318.1666564941406 126 Q 318.6666564941406 126 320.1666564941406 127 Q 321.6666564941406 128 322.6666564941406 129.5 Q 323.6666564941406 131 324.6666564941406 132.5 Q 325.6666564941406 134 326.1666564941406 134 Q 326.6666564941406 134 326.6666564941406 134.5 Q 326.6666564941406 135 327.1666564941406 135.5 Q 327.6666564941406 136 327.6666564941406 136.5 Q 327.6666564941406 137 327.6666564941406 137.5 Q 327.6666564941406 138 328.1666564941406 138 Q 328.6666564941406 138 328.6666564941406 138.5 Q 328.6666564941406 139 329.1666564941406 140.5 Q 329.6666564941406 142 330.1666564941406 142 Q 330.6666564941406 142 331.1666564941406 142 Q 331.6666564941406 142 331.6666564941406 142.5 Q 331.6666564941406 143 331.6666564941406 143.5 Q 331.6666564941406 144 332.1666564941406 145 Q 332.6666564941406 146 333.1666564941406 146 Q 333.6666564941406 146 333.6666564941406 146.5 Q 333.6666564941406 147 333.6666564941406 147.5 Q 333.6666564941406 148 333.6666564941406 148.5 Q 333.6666564941406 149 334.1666564941406 149.5 Q 334.6666564941406 150 335.1666564941406 150 Q 335.6666564941406 150 335.6666564941406 150.5 Q 335.6666564941406 151 336.1666564941406 151 Q 336.6666564941406 151 336.6666564941406 151.5 Q 336.6666564941406 152 337.1666564941406 152 Q 337.6666564941406 152 338.1666564941406 152 Q 338.6666564941406 152 339.1666564941406 152 Q 339.6666564941406 152 340.1666564941406 152 Q 340.6666564941406 152 340.6666564941406 151.5 Q 340.6666564941406 151 340.6666564941406 150.5 Q 340.6666564941406 150 340.6666564941406 149.5 Q 340.6666564941406 149 341.1666564941406 149 Q 341.6666564941406 149 341.6666564941406 148.5 Q 341.6666564941406 148 341.6666564941406 147.5 Q 341.6666564941406 147 341.6666564941406 146.5 Q 341.6666564941406 146 341.6666564941406 145.5 Q 341.6666564941406 145 341.6666564941406 144.5 Q 341.6666564941406 144 341.6666564941406 143.5 Q 341.6666564941406 143 341.6666564941406 142.5 Q 341.6666564941406 142 341.6666564941406 141.5 Q 341.6666564941406 141 341.6666564941406 140.5 Q 341.6666564941406 140 341.6666564941406 139.5 Q 341.6666564941406 139 341.6666564941406 138.5 Q 341.6666564941406 138 341.6666564941406 137.5 Q 341.6666564941406 137 341.6666564941406 136.5 Q 341.6666564941406 136 342.1666564941406 136 Q 342.6666564941406 136 342.6666564941406 135.5 Q 342.6666564941406 135 342.6666564941406 134.5 Q 342.6666564941406 134 343.1666564941406 134 Q 343.6666564941406 134 343.6666564941406 133.5 Q 343.6666564941406 133 343.6666564941406 132.5 Q 343.6666564941406 132 343.6666564941406 131.5 Q 343.6666564941406 131 343.6666564941406 130.5 Q 343.6666564941406 130 343.6666564941406 129.5 Q 343.6666564941406 129 343.6666564941406 128.5 Q 343.6666564941406 128 343.6666564941406 127.5 Q 343.6666564941406 127 343.6666564941406 126.5 Q 343.6666564941406 126 343.6666564941406 125.5 Q 343.6666564941406 125 343.1666564941406 125 Q 342.6666564941406 125 342.6666564941406 124.5 Q 342.6666564941406 124 342.6666564941406 123.5 Q 342.6666564941406 123 342.6666564941406 122.5 Q 342.6666564941406 122 342.1666564941406 121.5 Q 341.6666564941406 121 341.6666564941406 120.5 Q 341.6666564941406 120 341.6666564941406 119.5 Q 341.6666564941406 119 341.6666564941406 118.5 Q 341.6666564941406 118 341.1666564941406 118 Q 340.6666564941406 118 340.6666564941406 117.5 Q 340.6666564941406 117 340.6666564941406 116.5 Q 340.6666564941406 116 341.1666564941406 116 Q 341.6666564941406 116 341.6666564941406 115.5 Q 341.6666564941406 115 341.6666564941406 114.5 Q 341.6666564941406 114 341.6666564941406 115 Q 341.6666564941406 116 341.6666564941406 116.5 Q 341.6666564941406 117 341.6666564941406 117.5 Q 341.6666564941406 118 341.6666564941406 118.5 Q 341.6666564941406 119 341.6666564941406 119.5 Q 341.6666564941406 120 341.6666564941406 120.5 Q 341.6666564941406 121 341.6666564941406 121.5 Q 341.6666564941406 122 341.6666564941406 122.5 Q 341.6666564941406 123 341.6666564941406 123.5 Q 341.6666564941406 124 341.6666564941406 124.5 Q 341.6666564941406 125 341.6666564941406 125.5 Q 341.6666564941406 126 341.6666564941406 126.5 Q 341.6666564941406 127 341.6666564941406 127.5 Q 341.6666564941406 128 341.6666564941406 129 Q 341.6666564941406 130 341.6666564941406 130.5 Q 341.6666564941406 131 341.6666564941406 131.5 Q 341.6666564941406 132 341.6666564941406 132.5 Q 341.6666564941406 133 341.6666564941406 133.5 Q 341.6666564941406 134 341.6666564941406 134.5 Q 341.6666564941406 135 341.6666564941406 135.5 Q 341.6666564941406 136 341.6666564941406 136.5 Q 341.6666564941406 137 341.6666564941406 137.5 Q 341.6666564941406 138 341.1666564941406 138 Q 340.6666564941406 138 340.6666564941406 138.5 Q 340.6666564941406 139 340.1666564941406 139 Q 339.6666564941406 139 339.6666564941406 139.5 Q 339.6666564941406 140 339.1666564941406 140 Q 338.6666564941406 140 338.1666564941406 140 Q 337.6666564941406 140 337.6666564941406 140.5 Q 337.6666564941406 141 337.1666564941406 141 Q 336.6666564941406 141 336.6666564941406 141.5 Q 336.6666564941406 142 336.1666564941406 142 Q 335.6666564941406 142 335.6666564941406 141 Q 335.6666564941406 140 336.1666564941406 140 Q 336.6666564941406 140 337.1666564941406 140 Q 337.6666564941406 140 338.1666564941406 140 Q 338.6666564941406 140 339.1666564941406 140 Q 339.6666564941406 140 340.1666564941406 140.5 Q 340.6666564941406 141 341.1666564941406 141 Q 341.6666564941406 141 341.6666564941406 141.5 Q 341.6666564941406 142 341.6666564941406 141.5 Q 341.6666564941406 141 341.6666564941406 140.5 Q 341.6666564941406 140 341.6666564941406 139.5 Q 341.6666564941406 139 341.6666564941406 138.5 Q 341.6666564941406 138 341.6666564941406 137.5 Q 341.6666564941406 137 341.6666564941406 136.5 Q 341.6666564941406 136 341.6666564941406 135.5 Q 341.6666564941406 135 342.1666564941406 134.5 Q 342.6666564941406 134 342.6666564941406 133.5 Q 342.6666564941406 133 342.6666564941406 132.5 Q 342.6666564941406 132 342.6666564941406 131.5 Q 342.6666564941406 131 343.1666564941406 130.5 Q 343.6666564941406 130 343.6666564941406 129.5 Q 343.6666564941406 129 343.6666564941406 128.5 Q 343.6666564941406 128 343.6666564941406 127.5 Q 343.6666564941406 127 343.6666564941406 126.5 Q 343.6666564941406 126 343.6666564941406 125.5 Q 343.6666564941406 125 343.6666564941406 124.5 Q 343.6666564941406 124 343.6666564941406 123.5 Q 343.6666564941406 123 343.1666564941406 122.5 Q 342.6666564941406 122 342.6666564941406 121.5 Q 342.6666564941406 121 342.6666564941406 120.5 Q 342.6666564941406 120 342.1666564941406 120 Q 341.6666564941406 120 341.6666564941406 119.5 Q 341.6666564941406 119 341.6666564941406 118.5 Q 341.6666564941406 118 341.6666564941406 117.5 Q 341.6666564941406 117 341.6666564941406 116.5 Q 341.6666564941406 116 341.1666564941406 116 Q 340.6666564941406 116 340.1666564941406 115.5 Q 339.6666564941406 115 339.6666564941406 114.5 Q 339.6666564941406 114 339.1666564941406 114 Q 338.6666564941406 114 338.1666564941406 114 Q 337.6666564941406 114 338.1666564941406 114 Q 338.6666564941406 114 338.6666564941406 113.5 Q 338.6666564941406 113 339.1666564941406 112.5 Q 339.6666564941406 112 340.1666564941406 112 Q 340.6666564941406 112 340.6666564941406 111.5 Q 340.6666564941406 111 341.1666564941406 111 Q 341.6666564941406 111 341.6666564941406 110.5 Q 341.6666564941406 110 341.6666564941406 109.5 Q 341.6666564941406 109 341.6666564941406 108.5 Q 341.6666564941406 108 341.6666564941406 107.5 Q 341.6666564941406 107 341.6666564941406 106.5 Q 341.6666564941406 106 341.6666564941406 105.5 Q 341.6666564941406 105 341.1666564941406 105 Q 340.6666564941406 105 340.6666564941406 104.5 Q 340.6666564941406 104 340.6666564941406 103.5 Q 340.6666564941406 103 340.6666564941406 102.5 Q 340.6666564941406 102 340.6666564941406 101.5 Q 340.6666564941406 101 340.6666564941406 100.5 Q 340.6666564941406 100 340.6666564941406 99.5 Q 340.6666564941406 99 340.1666564941406 99 Q 339.6666564941406 99 339.1666564941406 99 Q 338.6666564941406 99 339.1666564941406 99 Q 339.6666564941406 99 340.1666564941406 99 Q 340.6666564941406 99 340.6666564941406 98.5 Q 340.6666564941406 98 341.1666564941406 98 Q 341.6666564941406 98 341.6666564941406 97.5 Q 341.6666564941406 97 341.6666564941406 96.5 Q 341.6666564941406 96 342.1666564941406 96 Q 342.6666564941406 96 343.1666564941406 95.5 Q 343.6666564941406 95 343.6666564941406 94.5 Q 343.6666564941406 94 343.1666564941406 93.5 Q 342.6666564941406 93 342.1666564941406 92.5 Q 341.6666564941406 92 341.6666564941406 91.5 Q 341.6666564941406 91 341.1666564941406 91 Q 340.6666564941406 91 340.6666564941406 91.5 L 340.6666564941406 92.01" stroke-linecap="round" />
</g>
<g transform="matrix(1 0 0 1 124.01 78.48)"  >
<path style="stroke: rgb(0,0,0); stroke-width: 4; stroke-dasharray: none; stroke-linecap: round; stroke-dashoffset: 0; stroke-linejoin: round; stroke-miterlimit: 10; fill: none; fill-rule: nonzero; opacity: 1;"  transform=" translate(-342.83, -127.5)" d="M 346 95.32933333333332 Q 346 95.33333333333333 346.16666666666663 95.5 Q 346.3333333333333 95.66666666666666 346.3333333333333 95.83333333333333 Q 346.3333333333333 96 346.66666666666663 96.16666666666666 Q 347 96.33333333333333 347 96.5 Q 347 96.66666666666666 347.16666666666663 96.66666666666666 Q 347.3333333333333 96.66666666666666 347.3333333333333 96.83333333333333 Q 347.3333333333333 97 347.5 97.16666666666666 Q 347.66666666666663 97.33333333333333 347.8333333333333 97.33333333333333 Q 348 97.33333333333333 348 97.66666666666666 Q 348 98 348.16666666666663 98 Q 348.3333333333333 98 348.3333333333333 98.33333333333333 Q 348.3333333333333 98.66666666666666 348.3333333333333 98.83333333333333 Q 348.3333333333333 99 348.3333333333333 99.16666666666666 Q 348.3333333333333 99.33333333333333 348.66666666666663 99.66666666666666 Q 349 100 349 100.16666666666666 Q 349 100.33333333333333 349.16666666666663 100.5 Q 349.3333333333333 100.66666666666666 349.3333333333333 100.83333333333333 Q 349.3333333333333 101 349.3333333333333 101.16666666666666 Q 349.3333333333333 101.33333333333333 349.5 101.66666666666666 Q 349.66666666666663 102 349.8333333333333 102.5 Q 350 103 350 103.33333333333333 Q 350 103.66666666666666 350.16666666666663 103.83333333333333 Q 350.3333333333333 104 350.3333333333333 104.16666666666666 Q 350.3333333333333 104.33333333333333 350.3333333333333 104.5 Q 350.3333333333333 104.66666666666666 350.3333333333333 104.83333333333333 Q 350.3333333333333 105 350.3333333333333 105.5 Q 350.3333333333333 106 350.3333333333333 106.66666666666666 Q 350.3333333333333 107.33333333333333 350.3333333333333 107.66666666666666 Q 350.3333333333333 108 350.3333333333333 108.16666666666666 Q 350.3333333333333 108.33333333333333 350.3333333333333 108.5 Q 350.3333333333333 108.66666666666666 350.3333333333333 109 Q 350.3333333333333 109.33333333333333 350.3333333333333 109.66666666666666 Q 350.3333333333333 110 350.3333333333333 110.16666666666666 Q 350.3333333333333 110.33333333333333 350.3333333333333 110.5 Q 350.3333333333333 110.66666666666666 350.3333333333333 111 Q 350.3333333333333 111.33333333333333 350.3333333333333 112 Q 350.3333333333333 112.66666666666666 350.3333333333333 112.83333333333333 Q 350.3333333333333 113 350.3333333333333 113.16666666666666 Q 350.3333333333333 113.33333333333333 350.3333333333333 113.66666666666666 Q 350.3333333333333 114 350.3333333333333 114.66666666666666 Q 350.3333333333333 115.33333333333333 350.3333333333333 115.66666666666666 Q 350.3333333333333 116 350.3333333333333 116.33333333333333 Q 350.3333333333333 116.66666666666666 350.3333333333333 117.16666666666666 Q 350.3333333333333 117.66666666666666 350.5 118.5 Q 350.66666666666663 119.33333333333333 350.66666666666663 119.66666666666666 Q 350.66666666666663 120 350.66666666666663 120.16666666666666 Q 350.66666666666663 120.33333333333333 350.66666666666663 120.5 Q 350.66666666666663 120.66666666666666 350.66666666666663 121.66666666666666 Q 350.66666666666663 122.66666666666666 350.66666666666663 122.83333333333333 Q 350.66666666666663 123 350.66666666666663 123.16666666666666 Q 350.66666666666663 123.33333333333333 350.8333333333333 123.66666666666666 Q 351 124 351 124.33333333333333 Q 351 124.66666666666666 351 125 Q 351 125.33333333333333 350.8333333333333 125.66666666666666 Q 350.66666666666663 126 350.5 126.66666666666666 Q 350.3333333333333 127.33333333333333 350.3333333333333 127.5 Q 350.3333333333333 127.66666666666666 350.16666666666663 128.5 Q 350 129.33333333333331 349.8333333333333 129.83333333333331 Q 349.66666666666663 130.33333333333331 349.66666666666663 130.5 Q 349.66666666666663 130.66666666666666 349.66666666666663 130.83333333333331 Q 349.66666666666663 131 349.3333333333333 131.5 Q 349 132 348.8333333333333 132.66666666666666 Q 348.66666666666663 133.33333333333331 348.5 133.33333333333331 Q 348.3333333333333 133.33333333333331 348.3333333333333 133.5 Q 348.3333333333333 133.66666666666666 348.3333333333333 134.16666666666666 Q 348.3333333333333 134.66666666666666 348.3333333333333 135 Q 348.3333333333333 135.33333333333331 348.3333333333333 135.5 Q 348.3333333333333 135.66666666666666 348.3333333333333 135.83333333333331 Q 348.3333333333333 136 348.16666666666663 136.66666666666666 Q 348 137.33333333333331 347.8333333333333 138 Q 347.66666666666663 138.66666666666666 347.66666666666663 138.83333333333331 Q 347.66666666666663 139 347.66666666666663 139.16666666666666 Q 347.66666666666663 139.33333333333331 347.66666666666663 140 Q 347.66666666666663 140.66666666666666 347.66666666666663 140.83333333333331 Q 347.66666666666663 141 347.66666666666663 141.16666666666666 Q 347.66666666666663 141.33333333333331 347.5 141.33333333333331 Q 347.3333333333333 141.33333333333331 347.3333333333333 141.66666666666666 Q 347.3333333333333 142 347.3333333333333 142.5 Q 347.3333333333333 143 347.3333333333333 143.16666666666666 Q 347.3333333333333 143.33333333333331 347.16666666666663 143.33333333333331 Q 347 143.33333333333331 347 143.5 Q 347 143.66666666666666 347 143.83333333333331 Q 347 144 346.8333333333333 144 Q 346.66666666666663 144 346.5 144 Q 346.3333333333333 144 346.16666666666663 144.16666666666666 Q 346 144.33333333333331 345.8333333333333 144.33333333333331 Q 345.66666666666663 144.33333333333331 345.66666666666663 144.5 Q 345.66666666666663 144.66666666666666 345 145.5 Q 344.3333333333333 146.33333333333331 343.66666666666663 147.83333333333331 Q 343 149.33333333333331 342.66666666666663 149.83333333333331 Q 342.3333333333333 150.33333333333331 342 151 Q 341.66666666666663 151.66666666666666 341.3333333333333 152.16666666666666 Q 341 152.66666666666666 341 152.83333333333331 Q 341 153 341 153.16666666666666 Q 341 153.33333333333331 341 153.16666666666666 Q 341 153 341 152.66666666666666 Q 341 152.33333333333331 341.16666666666663 151.83333333333331 Q 341.3333333333333 151.33333333333331 341.16666666666663 151.5 Q 341 151.66666666666666 341 152.16666666666666 Q 341 152.66666666666666 340.8333333333333 153 Q 340.66666666666663 153.33333333333331 340.5 153.66666666666666 Q 340.3333333333333 154 340.3333333333333 154.33333333333331 Q 340.3333333333333 154.66666666666666 340.3333333333333 154.83333333333331 Q 340.3333333333333 155 340.3333333333333 155.5 Q 340.3333333333333 156 340.16666666666663 156 Q 340 156 340 156.33333333333331 Q 340 156.66666666666666 339.8333333333333 156.66666666666666 Q 339.66666666666663 156.66666666666666 339.66666666666663 157 Q 339.66666666666663 157.33333333333331 339.3333333333333 158.16666666666666 Q 339 159 339 159.16666666666666 Q 339 159.33333333333331 338.8333333333333 159.33333333333331 Q 338.66666666666663 159.33333333333331 338.66666666666663 159.5 Q 338.66666666666663 159.66666666666666 338.5 159.66666666666666 Q 338.3333333333333 159.66666666666666 338.16666666666663 159.66666666666666 Q 338 159.66666666666666 337.8333333333333 159.5 Q 337.66666666666663 159.33333333333331 337.5 159.33333333333331 Q 337.3333333333333 159.33333333333331 337.16666666666663 159.33333333333331 Q 337 159.33333333333331 337 159.16666666666666 Q 337 159 336.8333333333333 158.83333333333331 Q 336.66666666666663 158.66666666666666 336.5 158.66666666666666 Q 336.3333333333333 158.66666666666666 336.3333333333333 158.5 Q 336.3333333333333 158.33333333333331 336 158.16666666666666 Q 335.66666666666663 158 335.5 157.83333333333331 Q 335.3333333333333 157.66666666666666 335.16666666666663 157.5 Q 335 157.33333333333331 335 157 Q 335 156.66666666666666 334.8333333333333 156.66666666666666 Q 334.66666666666663 156.66666666666666 334.66666666666663 156.33333333333331 L 334.66666666666663 155.996" stroke-linecap="round" />
</g>
<g transform="matrix(1 0 0 1 70.51 70.98)"  >
<path style="stroke: rgb(0,0,0); stroke-width: 4; stroke-dasharray: none; stroke-linecap: round; stroke-dashoffset: 0; stroke-linejoin: round; stroke-miterlimit: 10; fill: none; fill-rule: nonzero; opacity: 1;"  transform=" translate(-289.33, -120)" d="M 289.3293333333333 120 L 289.33733333333333 120" stroke-linecap="round" />
</g>
<g transform="matrix(1 0 0 1 71.51 72.98)"  >
<path style="stroke: rgb(0,0,0); stroke-width: 4; stroke-dasharray: none; stroke-linecap: round; stroke-dashoffset: 0; stroke-linejoin: round; stroke-miterlimit: 10; fill: none; fill-rule: nonzero; opacity: 1;"  transform=" translate(-290.33, -122)" d="M 290.3293333333333 122 L 290.33733333333333 122" stroke-linecap="round" />
</g>
<g transform="matrix(1.66 0 0 1.66 70.23 70.23)"  >
<circle style="stroke: rgb(0,0,0); stroke-width: 8; stroke-dasharray: none; stroke-linecap: butt; stroke-dashoffset: 0; stroke-linejoin: miter; stroke-miterlimit: 4; fill: none; fill-rule: nonzero; opacity: 1;" vector-effect="non-scaling-stroke"  cx="0" cy="0" r="40" />
</g>
<g transform="matrix(1 0 0 1 95.9 93.35)"  >
<line style="stroke: rgb(0,0,0); stroke-width: 2; stroke-dasharray: none; stroke-linecap: butt; stroke-dashoffset: 0; stroke-linejoin: miter; stroke-miterlimit: 4; fill: rgb(0,0,0); fill-rule: nonzero; opacity: 1;" vector-effect="non-scaling-stroke"  x1="-27.058823529411768" y1="-21.764705882352935" x2="27.058823529411768" y2="21.764705882352935" />
</g>
<g transform="matrix(1 0 0 1 97.67 53.94)"  >
<line style="stroke: rgb(0,0,0); stroke-width: 2; stroke-dasharray: none; stroke-linecap: butt; stroke-dashoffset: 0; stroke-linejoin: miter; stroke-miterlimit: 4; fill: rgb(0,0,0); fill-rule: nonzero; opacity: 1;" vector-effect="non-scaling-stroke"  x1="-30" y1="16.470588235294123" x2="30" y2="-16.470588235294123" />
</g>
<g transform="matrix(1 0 0 1 125.31 72.76)"  >
<line style="stroke: rgb(0,0,0); stroke-width: 2; stroke-dasharray: none; stroke-linecap: butt; stroke-dashoffset: 0; stroke-linejoin: miter; stroke-miterlimit: 4; fill: rgb(0,0,0); fill-rule: nonzero; opacity: 1;" vector-effect="non-scaling-stroke"  x1="0" y1="0" x2="0" y2="0" />
</g>
<g transform="matrix(1 0 0 1 96.49 53.94)"  >
<line style="stroke: rgb(0,0,0); stroke-width: 2; stroke-dasharray: none; stroke-linecap: butt; stroke-dashoffset: 0; stroke-linejoin: miter; stroke-miterlimit: 4; fill: rgb(0,0,0); fill-rule: nonzero; opacity: 1;" vector-effect="non-scaling-stroke"  x1="-28.823529411764724" y1="16.470588235294123" x2="28.823529411764724" y2="-16.470588235294123" />
</g>
<g transform="matrix(1 0 0 1 95.31 54.53)"  >
<line style="stroke: rgb(0,0,0); stroke-width: 2; stroke-dasharray: none; stroke-linecap: butt; stroke-dashoffset: 0; stroke-linejoin: miter; stroke-miterlimit: 4; fill: rgb(0,0,0); fill-rule: nonzero; opacity: 1;" vector-effect="non-scaling-stroke"  x1="-27.64705882352942" y1="17.058823529411768" x2="27.64705882352942" y2="-17.058823529411768" />
</g>
</svg>